<svg xmlns="http://www.w3.org/2000/svg" viewBox="0 0 64 64" fill="none">
  <!-- Background rounded square -->
  <rect width="64" height="64" rx="14" fill="#0F172A"/>

  <!-- Amber glow effect -->
  <circle cx="32" cy="30" r="22" fill="rgba(245,158,11,0.08)"/>

  <!-- Fork (left) -->
  <rect x="20" y="13" width="2.5" height="10" rx="1.25" fill="#F59E0B"/>
  <rect x="24" y="13" width="2.5" height="10" rx="1.25" fill="#F59E0B"/>
  <rect x="28" y="13" width="2.5" height="10" rx="1.25" fill="#F59E0B"/>
  <path d="M21.25 23 Q24.5 27 24.5 30 L24.5 49 Q24.5 50.5 23 50.5 Q21.5 50.5 21.5 49 L21.5 23Z" fill="#F59E0B"/>

  <!-- Knife (right) -->
  <path d="M38 13 Q42 19 42 25 L42 49 Q42 50.5 40.5 50.5 Q39 50.5 39 49 L39 13Z" fill="#F59E0B"/>
  <path d="M39 13 Q44 15 44 24 L42 25 Q42 19 39 13Z" fill="#F59E0B" opacity="0.7"/>

  <!-- QR-code style dots (decorative, amber) -->
  <rect x="14" y="14" width="5" height="5" rx="1" fill="#F59E0B" opacity="0.3"/>
  <rect x="45" y="14" width="5" height="5" rx="1" fill="#F59E0B" opacity="0.3"/>
  <rect x="14" y="45" width="5" height="5" rx="1" fill="#F59E0B" opacity="0.3"/>

  <!-- Small inner squares for QR feel -->
  <rect x="15.5" y="15.5" width="2" height="2" rx="0.5" fill="#F59E0B"/>
  <rect x="46.5" y="15.5" width="2" height="2" rx="0.5" fill="#F59E0B"/>
  <rect x="15.5" y="46.5" width="2" height="2" rx="0.5" fill="#F59E0B"/>
</svg>
